<svg width="16" height="14" viewBox="0 0 16 14" fill="none" xmlns="http://www.w3.org/2000/svg">
<path fill-rule="evenodd" clip-rule="evenodd" d="M14.8943 0.636036C14.6014 0.343143 14.1266 0.343143 13.8337 0.636037L2.16641 12.3033C1.87352 12.5962 1.87352 13.0711 2.16641 13.364C2.4593 13.6569 2.93418 13.6569 3.22707 13.364L4.85999 11.731C5.82404 12.1834 6.8854 12.4698 8 12.4698C12.4183 12.4698 16 7.96978 16 6.46978C16 5.72221 15.1104 4.22952 13.6709 2.92008L14.8943 1.6967C15.1872 1.4038 15.1872 0.92893 14.8943 0.636036ZM12.6089 3.98211L10.6909 5.90011C10.7296 6.0839 10.75 6.27446 10.75 6.46978C10.75 7.98856 9.51878 9.21978 8 9.21978C7.80468 9.21978 7.61413 9.19942 7.43033 9.1607L6.00384 10.5872C6.64795 10.8297 7.32009 10.9698 8 10.9698C9.70519 10.9698 11.3615 10.0885 12.6494 8.92099C13.2821 8.34739 13.7796 7.74477 14.1078 7.23176C14.3789 6.80794 14.463 6.5581 14.4888 6.48145L14.4927 6.46978L14.4888 6.45811C14.463 6.38146 14.3789 6.13161 14.1078 5.70779C13.7796 5.19479 13.2821 4.59216 12.6494 4.01856C12.6359 4.00638 12.6224 3.99423 12.6089 3.98211ZM8 0.469778C9.30378 0.469778 10.5347 0.861626 11.6223 1.45261L10.5067 2.56823C9.71109 2.19486 8.86178 1.96978 8 1.96978C6.29481 1.96978 4.63846 2.85102 3.35064 4.01856C2.71795 4.59216 2.22043 5.19479 1.89225 5.70779C1.62112 6.13161 1.53702 6.38146 1.51122 6.45811L1.50727 6.46978L1.51122 6.48145C1.53702 6.5581 1.62112 6.80794 1.89225 7.23176C2.22043 7.74477 2.71795 8.34739 3.35064 8.92099C3.49077 9.04803 3.63526 9.17168 3.7837 9.29118L2.71777 10.3571C1.05147 8.97593 0 7.2825 0 6.46978C0 4.96978 3.58172 0.469778 8 0.469778ZM8 3.71978C8.39818 3.71978 8.77659 3.8044 9.11824 3.95665L5.48687 7.58801C5.33463 7.24637 5.25 6.86796 5.25 6.46978C5.25 4.95099 6.48122 3.71978 8 3.71978Z" fill="#0E1512"/>
</svg>
