<svg width="34" height="24" viewBox="0 0 34 24" fill="none" xmlns="http://www.w3.org/2000/svg">
<path d="M33.3913 1.56522C33.3913 0.700772 32.6905 0 31.8261 0H1.56522C0.700772 0 0 0.700772 0 1.56522C0 2.42966 0.700772 3.13043 1.56522 3.13043H31.8261C32.6905 3.13043 33.3913 2.42966 33.3913 1.56522Z" fill="#EAFFF5"/>
<path d="M33.3913 12C33.3913 11.1356 32.6905 10.4348 31.8261 10.4348H1.56522C0.700772 10.4348 0 11.1356 0 12C0 12.8644 0.700772 13.5652 1.56522 13.5652H31.8261C32.6905 13.5652 33.3913 12.8644 33.3913 12Z" fill="#EAFFF5"/>
<path d="M31.8261 20.8696C32.6905 20.8696 33.3913 21.5703 33.3913 22.4348C33.3913 23.2992 32.6905 24 31.8261 24H1.56522C0.700772 24 0 23.2992 0 22.4348C0 21.5703 0.700772 20.8696 1.56522 20.8696H31.8261Z" fill="#EAFFF5"/>
</svg>
