<svg width="16" height="12" viewBox="0 0 16 12" fill="none" xmlns="http://www.w3.org/2000/svg">
<path fill-rule="evenodd" clip-rule="evenodd" d="M14.456 5.95738C14.4625 5.97293 14.4683 5.98713 14.4734 6C14.4683 6.01288 14.4625 6.02707 14.456 6.04263C14.3919 6.19406 14.281 6.40502 14.1137 6.6624C13.7798 7.17597 13.2756 7.79141 12.6382 8.38105C11.3355 9.58626 9.68337 10.5 8 10.5C6.31663 10.5 4.66455 9.58626 3.36177 8.38105C2.72439 7.79141 2.22017 7.17597 1.88632 6.6624C1.71902 6.40502 1.60809 6.19406 1.54404 6.04263C1.53746 6.02707 1.53168 6.01287 1.52662 6C1.53168 5.98713 1.53746 5.97293 1.54404 5.95738C1.60809 5.80594 1.71902 5.59498 1.88632 5.3376C2.22017 4.82403 2.72439 4.20859 3.36177 3.61895C4.66455 2.41374 6.31663 1.5 8 1.5C9.68337 1.5 11.3355 2.41374 12.6382 3.61895C13.2756 4.20859 13.7798 4.82403 14.1137 5.3376C14.281 5.59498 14.3919 5.80594 14.456 5.95738ZM16 6C16 7.28571 12.4183 12 8 12C3.58172 12 0 7.28571 0 6C0 4.71429 3.58172 0 8 0C12.4183 0 16 4.71429 16 6ZM8 8.5C9.38071 8.5 10.5 7.38071 10.5 6C10.5 4.61929 9.38071 3.5 8 3.5C6.61929 3.5 5.5 4.61929 5.5 6C5.5 7.38071 6.61929 8.5 8 8.5Z" fill="#0E1512"/>
</svg>
